<svg xmlns="http://www.w3.org/2000/svg" xmlns:xlink="http://www.w3.org/1999/xlink" id="Capa_1" x="0" y="0" version="1.1" viewBox="0 0 469.333 469.333" xml:space="preserve" style="enable-background:new 0 0 469.333 469.333"><g><g><g><rect width="42.667" height="42.667" x="0" y="128"/><path d="M0,85.333h42.667V42.667C19.093,42.667,0,61.76,0,85.333z"/><rect width="42.667" height="42.667" x="85.333" y="42.667"/><rect width="42.667" height="42.667" x="0" y="298.667"/><path d="M42.667,426.667V384H0C0,407.573,19.093,426.667,42.667,426.667z"/><rect width="42.667" height="42.667" x="0" y="213.333"/><rect width="42.667" height="42.667" x="170.667" y="384"/><rect width="42.667" height="42.667" x="85.333" y="384"/><rect width="42.667" height="42.667" x="426.667" y="213.333"/><rect width="42.667" height="42.667" x="426.667" y="298.667"/><rect width="42.667" height="42.667" x="170.667" y="42.667"/><path d="M426.667,42.667H256v128h213.333V85.333C469.333,61.76,450.24,42.667,426.667,42.667z"/><path d="M426.667,426.667c23.573,0,42.667-19.093,42.667-42.667h-42.667V426.667z"/><rect width="42.667" height="42.667" x="256" y="384"/><rect width="42.667" height="42.667" x="341.333" y="384"/></g></g></g></svg>