<svg xmlns="http://www.w3.org/2000/svg" xmlns:xlink="http://www.w3.org/1999/xlink" id="Capa_1" x="0" y="0" version="1.1" viewBox="0 0 469.333 469.333" xml:space="preserve" style="enable-background:new 0 0 469.333 469.333"><g><g><g><rect width="42.667" height="42.667" x="128" y="426.667"/><rect width="42.667" height="42.667" x="213.333" y="426.667"/><rect width="42.667" height="213.333" x="213.333" y="0"/><rect width="42.667" height="42.667" x="298.667" y="426.667"/><path d="M332.053,51.947l-30.827,30.827c36.8,22.507,61.44,62.933,61.44,109.227c0,70.72-57.28,128-128,128s-128-57.28-128-128 c0-46.293,24.64-86.72,61.44-109.227L137.28,51.947C93.013,82.773,64,133.973,64,192c0,94.293,76.373,170.667,170.667,170.667 S405.333,286.293,405.333,192C405.333,133.973,376.32,82.773,332.053,51.947z"/></g></g></g></svg>