<svg xmlns="http://www.w3.org/2000/svg" xmlns:xlink="http://www.w3.org/1999/xlink" id="Capa_1" x="0" y="0" version="1.1" viewBox="0 0 426.667 426.667" xml:space="preserve" style="enable-background:new 0 0 426.667 426.667"><g><g><g><polygon points="268.48 128 213.333 183.147 158.187 128 128 158.187 183.147 213.333 128 268.48 158.187 298.667 213.333 243.52 268.48 298.667 298.667 268.48 243.52 213.333 298.667 158.187"/><path d="M213.333,0C95.467,0,0,95.467,0,213.333s95.467,213.333,213.333,213.333S426.667,331.2,426.667,213.333 S331.2,0,213.333,0z M213.333,384c-94.08,0-170.667-76.587-170.667-170.667S119.253,42.667,213.333,42.667 S384,119.253,384,213.333S307.413,384,213.333,384z"/></g></g></g></svg>