<svg xmlns="http://www.w3.org/2000/svg" xmlns:xlink="http://www.w3.org/1999/xlink" id="Capa_1" x="0" y="0" version="1.1" viewBox="0 0 384 384" xml:space="preserve" style="enable-background:new 0 0 384 384"><g><g><g><rect width="42.667" height="42.667" x="0" y="170.667"/><path d="M42.667,384v-42.667H0C0,364.907,19.093,384,42.667,384z"/><rect width="42.667" height="42.667" x="0" y="85.333"/><rect width="42.667" height="42.667" x="0" y="256"/><path d="M341.333,0H128c-23.573,0-42.667,19.093-42.667,42.667V256c0,23.573,19.093,42.667,42.667,42.667h213.333 C364.907,298.667,384,279.573,384,256V42.667C384,19.093,364.907,0,341.333,0z M341.333,256H128V42.667h213.333V256z"/><rect width="42.667" height="42.667" x="85.333" y="341.333"/><rect width="42.667" height="42.667" x="256" y="341.333"/><rect width="42.667" height="42.667" x="170.667" y="341.333"/></g></g></g></svg>