<svg xmlns="http://www.w3.org/2000/svg" xmlns:xlink="http://www.w3.org/1999/xlink" id="Capa_1" x="0" y="0" version="1.1" viewBox="0 0 469.333 469.333" xml:space="preserve" style="enable-background:new 0 0 469.333 469.333"><g><g><g><polygon points="128 170.667 192 170.667 192 128 85.333 128 85.333 234.667 128 234.667"/><polygon points="384 234.667 341.333 234.667 341.333 298.667 277.333 298.667 277.333 341.333 384 341.333"/><path d="M426.667,42.667h-384C19.093,42.667,0,61.76,0,85.333V384c0,23.573,19.093,42.667,42.667,42.667h384 c23.573,0,42.667-19.093,42.667-42.667V85.333C469.333,61.76,450.24,42.667,426.667,42.667z M426.667,384.32h-384V85.013h384 V384.32z"/></g></g></g></svg>