<svg xmlns="http://www.w3.org/2000/svg" xmlns:xlink="http://www.w3.org/1999/xlink" id="Capa_1" x="0" y="0" version="1.1" viewBox="0 0 384 384" xml:space="preserve" style="enable-background:new 0 0 384 384"><g><g><path d="M341.333,0H42.667C19.093,0,0,19.093,0,42.667v298.667C0,364.907,19.093,384,42.667,384h298.667 C364.907,384,384,364.907,384,341.333V42.667C384,19.093,364.907,0,341.333,0z M192,64c35.307,0,64,28.693,64,64 c0,35.413-28.693,64-64,64s-64-28.587-64-64C128,92.693,156.693,64,192,64z M320,320H64v-21.333 c0-42.667,85.333-66.133,128-66.133S320,256,320,298.667V320z"/></g></g></svg>